<svg width="44" height="44" viewBox="0 0 44 44" fill="none" xmlns="http://www.w3.org/2000/svg">
<path d="M34.5714 18.625V21.375C34.5714 21.9422 34.0411 22.4062 33.3929 22.4062H24.75V29.9688C24.75 30.5359 24.2196 31 23.5714 31H20.4286C19.7804 31 19.25 30.5359 19.25 29.9688V22.4062H10.6071C9.95893 22.4062 9.42857 21.9422 9.42857 21.375V18.625C9.42857 18.0578 9.95893 17.5938 10.6071 17.5938H19.25V10.0312C19.25 9.46406 19.7804 9 20.4286 9H23.5714C24.2196 9 24.75 9.46406 24.75 10.0312V17.5938H33.3929C34.0411 17.5938 34.5714 18.0578 34.5714 18.625ZM44 4.875V35.125C44 37.4023 41.8884 39.25 39.2857 39.25H4.71429C2.11161 39.25 0 37.4023 0 35.125V4.875C0 2.59766 2.11161 0.75 4.71429 0.75H39.2857C41.8884 0.75 44 2.59766 44 4.875ZM39.2857 34.6094V5.39062C39.2857 5.10703 39.0205 4.875 38.6964 4.875H5.30357C4.97946 4.875 4.71429 5.10703 4.71429 5.39062V34.6094C4.71429 34.893 4.97946 35.125 5.30357 35.125H38.6964C39.0205 35.125 39.2857 34.893 39.2857 34.6094Z" fill="#532D72"/>
</svg>
